<svg width="26" height="26" viewBox="0 0 26 26" fill="none" xmlns="http://www.w3.org/2000/svg">
<path d="M24.5698 1.43021C23.6166 0.476795 22.4682 0 21.1254 0H4.87504C3.53226 0 2.38383 0.476795 1.43023 1.43021C0.476802 2.38379 0 3.53214 0 4.87496V21.1249C0 22.4676 0.476802 23.616 1.43023 24.5696C2.38383 25.5232 3.53226 26 4.87504 26H21.1252C22.468 26 23.6164 25.5232 24.5696 24.5696C25.5232 23.616 26 22.4676 26 21.1249V4.87496C25.9999 3.53214 25.5231 2.38362 24.5698 1.43021ZM15.3532 3.75756H16.4874V8.36151C16.4874 8.63246 16.4927 8.77919 16.504 8.80178C16.5154 8.98237 16.6059 9.07255 16.775 9.07255C17.0007 9.07255 17.2379 8.89777 17.486 8.54797V3.75756H18.6202V10.0206H17.486L17.4856 9.3432C17.0229 9.85089 16.5886 10.1051 16.1824 10.1051C15.8214 10.1051 15.5788 9.9528 15.4544 9.64806C15.3866 9.44506 15.3532 9.13463 15.3532 8.717V3.75756ZM11.0706 5.78888C11.0706 5.13446 11.1891 4.64344 11.4261 4.31629C11.7307 3.88752 12.1707 3.67301 12.7462 3.67301C13.2993 3.67301 13.7395 3.88769 14.0664 4.31629C14.3036 4.6435 14.4221 5.13446 14.4221 5.78888V7.98948C14.4221 8.66661 14.3036 9.15751 14.0664 9.46213C13.7395 9.89114 13.2993 10.1055 12.7462 10.1055C12.1707 10.1055 11.7307 9.89096 11.4261 9.46213C11.1891 9.13486 11.0706 8.64396 11.0706 7.98948V5.78888ZM8.02346 1.60783L8.92068 4.90881L9.78393 1.60783H11.0535L9.52999 6.61826L9.53023 10.0206H8.27763V6.61826C8.15336 5.99764 7.89386 5.10612 7.49893 3.9439C7.23942 3.16521 7.10958 2.77587 7.10958 2.77587L6.70315 1.60783H8.02346ZM21.9719 22.0391C21.8591 22.5241 21.6193 22.9359 21.2522 23.2748C20.8857 23.6132 20.4599 23.8108 19.9745 23.8674C18.4287 24.0364 16.1037 24.1212 13.0005 24.1212C9.89705 24.1212 7.57239 24.0364 6.02643 23.8674C5.54127 23.8108 5.11534 23.6132 4.74846 23.2748C4.38169 22.9359 4.14199 22.5241 4.0291 22.0391C3.80351 21.091 3.69068 19.6239 3.69068 17.638C3.69068 15.6853 3.80351 14.2188 4.0291 13.2368C4.14205 12.7403 4.38175 12.3255 4.74846 11.9925C5.11534 11.6595 5.54684 11.4648 6.04344 11.4084C7.57796 11.2389 9.89705 11.1545 13.0005 11.1545C16.1152 11.1545 18.44 11.2392 19.9745 11.4084C20.4599 11.4649 20.8882 11.6594 21.2607 11.9925C21.6332 12.3253 21.8761 12.7401 21.9889 13.2368C22.2029 14.1734 22.3103 15.6403 22.3103 17.638C22.3103 19.6238 22.1974 21.0907 21.9719 22.0391Z" fill="#192D50"/>
<path d="M5.07796 14.5065H6.39833V21.6665H7.65093V14.5065H9.00515V13.3215H5.07796V14.5065Z" fill="#192D50"/>
<path d="M11.2735 20.1939C11.0253 20.5435 10.7882 20.7184 10.5626 20.7184C10.4046 20.7184 10.3199 20.6338 10.3087 20.4646C10.2974 20.4421 10.2917 20.2954 10.2917 20.0244V15.454H9.17448V20.3628C9.17448 20.7917 9.20839 21.0964 9.27616 21.2766C9.37766 21.5927 9.61476 21.7505 9.98709 21.7505C10.4046 21.7505 10.8334 21.4967 11.2735 20.9889V21.6662H12.4075V15.4544H11.2735V20.1939Z" fill="#192D50"/>
<path d="M15.658 15.3695C15.2517 15.3695 14.8679 15.5952 14.5071 16.0468V13.3215H13.3729V21.6665H14.5071V21.0571C14.8792 21.5197 15.2633 21.7509 15.658 21.7509C16.1208 21.7509 16.4197 21.514 16.5548 21.04C16.6339 20.803 16.6732 20.3912 16.6732 19.8044V17.3332C16.6732 16.735 16.6334 16.3174 16.5548 16.0805C16.4196 15.6065 16.1207 15.3695 15.658 15.3695ZM15.5563 19.8892C15.5563 20.4421 15.3928 20.7182 15.0653 20.7186C14.8738 20.7186 14.6873 20.6282 14.5067 20.4476V16.6559C14.6873 16.4758 14.8738 16.3853 15.0653 16.3853C15.3928 16.3853 15.5563 16.6671 15.5563 17.2314V19.8892Z" fill="#192D50"/>
<path d="M19.7707 19.8807C19.7707 19.9992 19.7678 20.0921 19.7625 20.1599C19.757 20.2277 19.7539 20.2672 19.7539 20.2783C19.6864 20.5715 19.517 20.7182 19.2461 20.7182C18.8624 20.7182 18.6705 20.4305 18.6705 19.8551V18.755H20.9219V17.4683C20.9219 16.8139 20.8036 16.3288 20.5664 16.0127C20.2621 15.584 19.8218 15.3693 19.2461 15.3693C18.6705 15.3693 18.2193 15.5839 17.8918 16.0127C17.6661 16.3174 17.5534 16.8029 17.5534 17.4683V19.652C17.5534 20.3178 17.6718 20.8032 17.9088 21.108C18.2363 21.5367 18.6932 21.7514 19.2802 21.7514C19.8783 21.7514 20.3296 21.5257 20.6346 21.0741C20.7699 20.8708 20.8549 20.6452 20.8886 20.397C20.9109 20.239 20.9222 19.9963 20.9222 19.6691V19.5171L19.771 19.5167L19.7707 19.8807ZM18.6709 17.2484C18.6709 16.673 18.8572 16.3853 19.2295 16.3853C19.602 16.3853 19.7881 16.673 19.7881 17.2484V17.8242H18.6709V17.2484Z" fill="#192D50"/>
<path d="M12.7462 9.07255C13.1073 9.07255 13.2878 8.78495 13.2878 8.20944V5.56875C13.2878 4.98209 13.1073 4.6885 12.7462 4.6885C12.3851 4.6885 12.2046 4.98209 12.2046 5.56875V8.20944C12.2046 8.78477 12.3851 9.07255 12.7462 9.07255Z" fill="#192D50"/>
</svg>
