<svg width="193" height="220" viewBox="0 0 193 220" fill="none" xmlns="http://www.w3.org/2000/svg">
<path d="M96.8936 219.885C96.3602 219.885 95.8384 219.805 95.3281 219.633C94.3773 219.313 71.6034 211.722 48.4584 198.578C16.3035 180.305 0 160.921 0 140.93V35.2755C0 33.1803 1.3567 31.3255 3.36275 30.6614L95.3281 0.251886C95.8384 0.0801456 96.3602 0 96.8936 0C97.427 0 97.972 0.0915949 98.4822 0.263335L189.16 30.6728C191.167 31.3484 192.512 33.1917 192.512 35.2869V140.884C192.512 160.085 176.452 179.24 144.761 197.834C130.057 206.352 114.507 213.68 98.5401 219.61C98.0299 219.793 97.4733 219.885 96.8936 219.885ZM9.86793 38.779V140.93C9.86793 161.115 33.4304 178.77 53.1894 190.025C71.0932 200.215 89.1013 207.073 96.0123 209.546L96.824 209.833L97.6357 209.523C104.466 206.913 122.242 199.711 139.879 189.35C159.383 177.877 182.632 160.154 182.632 140.873V38.7676L96.882 10.0067L9.86793 38.779Z" fill="url(#paint0_linear_116_20)"/>
<path d="M78.3027 149.312C76.9808 149.312 75.7517 148.808 74.8124 147.88L38.9122 112.445C37.9845 111.529 37.4627 110.304 37.4627 108.998C37.4627 107.693 37.9729 106.479 38.9122 105.552C39.8398 104.636 41.0806 104.121 42.4025 104.121C43.7244 104.121 44.9535 104.625 45.8928 105.552L78.3027 137.553L146.601 70.1163C147.517 69.2232 148.747 68.7195 150.057 68.7195C151.367 68.7195 152.631 69.2347 153.57 70.1621C155.46 72.0512 155.46 75.1196 153.57 77.0088L81.793 147.88C80.8654 148.796 79.6246 149.312 78.3027 149.312Z" fill="url(#paint1_linear_116_20)"/>
<defs>
<linearGradient id="paint0_linear_116_20" x1="-102" y1="-86.4548" x2="435.162" y2="573.975" gradientUnits="userSpaceOnUse">
<stop stop-color="#3966B6" stop-opacity="0.2"/>
<stop offset="1" stop-color="#192D50"/>
</linearGradient>
<linearGradient id="paint1_linear_116_20" x1="-102" y1="-86.4548" x2="435.162" y2="573.975" gradientUnits="userSpaceOnUse">
<stop stop-color="#3966B6" stop-opacity="0.2"/>
<stop offset="1" stop-color="#192D50"/>
</linearGradient>
</defs>
</svg>
