<svg width="29" height="27" viewBox="0 0 29 27" fill="none" xmlns="http://www.w3.org/2000/svg">
<path d="M10.0219 3.19367H6.11356C5.87535 3.19367 5.68567 3.00399 5.68567 2.76578C5.68567 2.52757 5.87535 2.33789 6.11356 2.33789H10.0219C10.2601 2.33789 10.4498 2.52757 10.4498 2.76578C10.4498 3.00399 10.2601 3.19367 10.0219 3.19367Z" fill="white"/>
<path d="M22.1137 3.19367H18.2097C17.9715 3.19367 17.7819 3.00399 17.7819 2.76578C17.7819 2.52757 17.9715 2.33789 18.2097 2.33789H22.1137C22.3519 2.33789 22.5416 2.52757 22.5416 2.76578C22.5416 3.00399 22.3475 3.19367 22.1137 3.19367Z" fill="white"/>
<path d="M26.0131 26.7717H2.21891C0.997001 26.7717 6.10352e-05 25.7748 6.10352e-05 24.5529V4.55674C6.10352e-05 3.33483 0.992589 2.33789 2.21891 2.33789H3.97459C4.21279 2.33789 4.40247 2.52757 4.40247 2.76578C4.40247 3.00399 4.21279 3.19367 3.97459 3.19367H2.21891C1.469 3.19367 0.855841 3.80242 0.855841 4.55674V24.5529C0.855841 25.3072 1.46459 25.9204 2.21891 25.9204H26.0175C26.7674 25.9204 27.3806 25.3072 27.3806 24.5529V4.55674C27.3806 3.80683 26.7719 3.19367 26.0175 3.19367H24.2575C24.0192 3.19367 23.8296 3.00399 23.8296 2.76578C23.8296 2.52757 24.0192 2.33789 24.2575 2.33789H26.0175C27.2394 2.33789 28.2364 3.33042 28.2364 4.55674V24.5529C28.232 25.7748 27.2394 26.7717 26.0131 26.7717Z" fill="white"/>
<path d="M16.0702 3.19367H12.1618C11.9236 3.19367 11.7339 3.00399 11.7339 2.76578C11.7339 2.52757 11.9236 2.33789 12.1618 2.33789H16.0702C16.3084 2.33789 16.4981 2.52757 16.4981 2.76578C16.4981 3.00399 16.304 3.19367 16.0702 3.19367Z" fill="white"/>
<path d="M27.8041 8.24006H0.427951C0.189744 8.24006 6.10352e-05 8.04596 6.10352e-05 7.81217C6.10352e-05 7.57837 0.189744 7.38428 0.427951 7.38428H27.8041C28.0423 7.38428 28.232 7.57396 28.232 7.81217C28.232 8.05037 28.0379 8.24006 27.8041 8.24006Z" fill="white"/>
<path d="M5.04651 5.5361C4.22161 5.5361 3.54669 4.86559 3.54669 4.03628V1.49982C3.54669 0.674919 4.2172 0 5.04651 0C5.87582 0 6.54633 0.670508 6.54633 1.49982V4.03628C6.54633 4.86118 5.87141 5.5361 5.04651 5.5361ZM5.04651 0.860191C4.69361 0.860191 4.40247 1.14692 4.40247 1.50423V4.04069C4.40247 4.39359 4.6892 4.68473 5.04651 4.68473C5.39941 4.68473 5.69055 4.398 5.69055 4.04069V1.49982C5.69055 1.14692 5.39941 0.860191 5.04651 0.860191Z" fill="white"/>
<path d="M17.1378 5.5361C16.3129 5.5361 15.6379 4.86559 15.6379 4.03628V1.49982C15.6379 0.674919 16.3084 0 17.1378 0C17.9627 0 18.6376 0.670508 18.6376 1.49982V4.03628C18.6376 4.86118 17.9627 5.5361 17.1378 5.5361ZM17.1378 0.860191C16.7849 0.860191 16.4937 1.14692 16.4937 1.50423V4.04069C16.4937 4.39359 16.7804 4.68473 17.1378 4.68473C17.4907 4.68473 17.7818 4.398 17.7818 4.04069V1.49982C17.7818 1.14692 17.4951 0.860191 17.1378 0.860191Z" fill="white"/>
<path d="M11.0942 5.5361C10.2693 5.5361 9.59436 4.86559 9.59436 4.03628V1.49982C9.59436 0.674919 10.2649 0 11.0942 0C11.9191 0 12.594 0.670508 12.594 1.49982V4.03628C12.5896 4.86118 11.9191 5.5361 11.0942 5.5361ZM11.0942 0.860191C10.7413 0.860191 10.4501 1.14692 10.4501 1.50423V4.04069C10.4501 4.39359 10.7369 4.68473 11.0942 4.68473C11.4471 4.68473 11.7382 4.398 11.7382 4.04069V1.49982C11.7338 1.14692 11.4471 0.860191 11.0942 0.860191Z" fill="white"/>
<path d="M23.1866 5.5361C22.3617 5.5361 21.6868 4.86559 21.6868 4.03628V1.49982C21.6868 0.674919 22.3573 0 23.1866 0C24.0116 0 24.6865 0.670508 24.6865 1.49982V4.03628C24.6821 4.86118 24.0116 5.5361 23.1866 5.5361ZM23.1866 0.860191C22.8338 0.860191 22.5426 1.14692 22.5426 1.50423V4.04069C22.5426 4.39359 22.8293 4.68473 23.1866 4.68473C23.5395 4.68473 23.8307 4.398 23.8307 4.04069V1.49982C23.8263 1.14692 23.5395 0.860191 23.1866 0.860191Z" fill="white"/>
<path d="M10.6312 13.9569H7.64035C7.40215 13.9569 7.21246 13.7672 7.21246 13.529V10.4147C7.21246 10.1765 7.40215 9.98682 7.64035 9.98682H10.6312C10.8694 9.98682 11.0591 10.1765 11.0591 10.4147V13.529C11.0591 13.7628 10.865 13.9569 10.6312 13.9569ZM8.06824 13.1011H10.2033V10.8426H8.06824V13.1011Z" fill="white"/>
<path d="M15.6117 13.9569H12.6209C12.3827 13.9569 12.193 13.7672 12.193 13.529V10.4147C12.193 10.1765 12.3827 9.98682 12.6209 9.98682H15.6117C15.8499 9.98682 16.0396 10.1765 16.0396 10.4147V13.529C16.0396 13.7628 15.8455 13.9569 15.6117 13.9569ZM13.0488 13.1011H15.1838V10.8426H13.0488V13.1011Z" fill="white"/>
<path d="M20.5917 13.9569H17.6009C17.3627 13.9569 17.173 13.7672 17.173 13.529V10.4147C17.173 10.1765 17.3627 9.98682 17.6009 9.98682H20.5917C20.8299 9.98682 21.0196 10.1765 21.0196 10.4147V13.529C21.0196 13.7628 20.8255 13.9569 20.5917 13.9569ZM18.0288 13.1011H20.1639V10.8426H18.0288V13.1011Z" fill="white"/>
<path d="M25.5723 13.9569H22.5815C22.3432 13.9569 22.1536 13.7672 22.1536 13.529V10.4147C22.1536 10.1765 22.3432 9.98682 22.5815 9.98682H25.5723C25.8105 9.98682 26.0002 10.1765 26.0002 10.4147V13.529C26.0002 13.7628 25.8061 13.9569 25.5723 13.9569ZM23.0093 13.1011H25.1444V10.8426H23.0093V13.1011Z" fill="white"/>
<path d="M5.65113 19.0607H2.66031C2.42211 19.0607 2.23242 18.871 2.23242 18.6328V15.5185C2.23242 15.2803 2.42211 15.0906 2.66031 15.0906H5.65113C5.88934 15.0906 6.07902 15.2803 6.07902 15.5185V18.6328C6.07902 18.871 5.88934 19.0607 5.65113 19.0607ZM3.0882 18.2049H5.22324V15.9464H3.0882V18.2049Z" fill="white"/>
<path d="M10.6312 19.0607H7.64035C7.40215 19.0607 7.21246 18.871 7.21246 18.6328V15.5185C7.21246 15.2803 7.40215 15.0906 7.64035 15.0906H10.6312C10.8694 15.0906 11.0591 15.2803 11.0591 15.5185V18.6328C11.0591 18.871 10.865 19.0607 10.6312 19.0607ZM8.06824 18.2049H10.2033V15.9464H8.06824V18.2049Z" fill="white"/>
<path d="M15.6117 19.0607H12.6209C12.3827 19.0607 12.193 18.871 12.193 18.6328V15.5185C12.193 15.2803 12.3827 15.0906 12.6209 15.0906H15.6117C15.8499 15.0906 16.0396 15.2803 16.0396 15.5185V18.6328C16.0396 18.871 15.8455 19.0607 15.6117 19.0607ZM13.0488 18.2049H15.1838V15.9464H13.0488V18.2049Z" fill="white"/>
<path d="M20.5917 19.0607H17.6009C17.3627 19.0607 17.173 18.871 17.173 18.6328V15.5185C17.173 15.2803 17.3627 15.0906 17.6009 15.0906H20.5917C20.8299 15.0906 21.0196 15.2803 21.0196 15.5185V18.6328C21.0196 18.871 20.8255 19.0607 20.5917 19.0607ZM18.0288 18.2049H20.1639V15.9464H18.0288V18.2049Z" fill="white"/>
<path d="M20.5917 24.1693H17.6009C17.3627 24.1693 17.173 23.9796 17.173 23.7414V20.6271C17.173 20.3889 17.3627 20.1992 17.6009 20.1992H20.5917C20.8299 20.1992 21.0196 20.3889 21.0196 20.6271V23.7414C21.0196 23.9752 20.8255 24.1693 20.5917 24.1693ZM18.0288 23.3136H20.1639V21.055H18.0288V23.3136Z" fill="white"/>
<path d="M25.5723 19.0607H22.5815C22.3432 19.0607 22.1536 18.871 22.1536 18.6328V15.5185C22.1536 15.2803 22.3432 15.0906 22.5815 15.0906H25.5723C25.8105 15.0906 26.0002 15.2803 26.0002 15.5185V18.6328C26.0002 18.871 25.8061 19.0607 25.5723 19.0607ZM23.0093 18.2049H25.1444V15.9464H23.0093V18.2049Z" fill="white"/>
<path d="M5.65113 24.1693H2.66031C2.42211 24.1693 2.23242 23.9796 2.23242 23.7414V20.6271C2.23242 20.3889 2.42211 20.1992 2.66031 20.1992H5.65113C5.88934 20.1992 6.07902 20.3889 6.07902 20.6271V23.7414C6.07902 23.9752 5.88934 24.1693 5.65113 24.1693ZM3.0882 23.3136H5.22324V21.055H3.0882V23.3136Z" fill="white"/>
<path d="M10.6312 24.1693H7.64035C7.40215 24.1693 7.21246 23.9796 7.21246 23.7414V20.6271C7.21246 20.3889 7.40215 20.1992 7.64035 20.1992H10.6312C10.8694 20.1992 11.0591 20.3889 11.0591 20.6271V23.7414C11.0591 23.9752 10.865 24.1693 10.6312 24.1693ZM8.06824 23.3136H10.2033V21.055H8.06824V23.3136Z" fill="white"/>
<path d="M15.6117 24.1693H12.6209C12.3827 24.1693 12.193 23.9796 12.193 23.7414V20.6271C12.193 20.3889 12.3827 20.1992 12.6209 20.1992H15.6117C15.8499 20.1992 16.0396 20.3889 16.0396 20.6271V23.7414C16.0396 23.9752 15.8455 24.1693 15.6117 24.1693ZM13.0488 23.3136H15.1838V21.055H13.0488V23.3136Z" fill="white"/>
</svg>
