<svg width="226" height="280" viewBox="0 0 226 280" fill="none" xmlns="http://www.w3.org/2000/svg">
<mask id="mask0_1_437" style="mask-type:alpha" maskUnits="userSpaceOnUse" x="0" y="0" width="226" height="280">
<mask id="path-1-inside-1_1_437" fill="white">
<path d="M0 0H225.5V280H0V0Z"/>
</mask>
<path d="M0 0H225.5V280H0V0Z" fill="#D9D9D9"/>
<path d="M0 -0.5C0 -0.166667 0 0.166667 0 0.5C16.85 0.5 33.7 0.5 50.55 0.5C108.867 0.5 167.183 0.5 225.5 0.5L225 0C225 80.6546 225 161.309 225 241.964C225 254.643 225 267.321 225 280L225.5 279.5C150.333 279.5 75.1667 279.5 0 279.5L0.5 280C0.5 203.517 0.5 127.033 0.5 50.55C0.5 33.7 0.5 16.85 0.5 0C0.166667 0 -0.166667 0 -0.5 0C-0.5 16.85 -0.5 33.7 -0.5 50.55C-0.5 127.033 -0.5 203.517 -0.5 280V280.5H0C75.1667 280.5 150.333 280.5 225.5 280.5H226V280C226 267.321 226 254.643 226 241.964C226 161.309 226 80.6546 226 0V-0.5H225.5C167.183 -0.5 108.867 -0.5 50.55 -0.5C33.7 -0.5 16.85 -0.5 0 -0.5ZM0 0.5V-0.5H-0.5V0H0.5L0 0.5Z" fill="black" mask="url(#path-1-inside-1_1_437)"/>
</mask>
<g mask="url(#mask0_1_437)">
<g opacity="0.9">
<path d="M206.77 268.559C204.4 268.559 202.056 267.964 199.978 266.849C197.672 265.621 196.81 262.759 198.027 260.467C198.85 258.921 200.46 257.959 202.208 257.959C202.981 257.959 203.741 258.149 204.426 258.516C205.161 258.909 205.959 259.111 206.77 259.111C207.923 259.111 209.038 258.706 209.925 257.984C215.285 253.564 220.239 248.6 224.661 243.243C225.941 241.685 226.157 239.532 225.194 237.759L213.726 216.23C213.295 215.419 212.941 214.558 212.662 213.659C211.534 209.986 211.914 206.085 213.726 202.679C215.538 199.284 218.567 196.79 222.241 195.675L245.569 188.57C247.507 187.988 248.876 186.316 249.079 184.315C249.408 180.858 249.573 177.35 249.573 173.88C249.573 170.409 249.408 166.927 249.079 163.444C248.888 161.43 247.507 159.771 245.581 159.189L222.254 152.084C221.367 151.818 220.505 151.451 219.682 151.02C212.662 147.284 210.001 138.546 213.726 131.53L225.194 110C226.144 108.227 225.941 106.061 224.661 104.516C220.239 99.1592 215.272 94.2074 209.912 89.7748C209.025 89.0529 207.91 88.6477 206.77 88.6477C205.959 88.6477 205.148 88.8503 204.426 89.2302L182.885 100.692C182.061 101.122 181.2 101.489 180.313 101.755C178.944 102.173 177.525 102.389 176.106 102.389C169.72 102.389 164.182 98.2853 162.32 92.1811L155.211 68.8658C154.628 66.9281 152.956 65.5477 150.954 65.3704C147.507 65.0411 143.985 64.8765 140.5 64.8765C137.015 64.8765 133.531 65.0411 130.084 65.3704C128.07 65.5603 126.397 66.9281 125.827 68.8658L118.718 92.1811C118.452 93.0676 118.085 93.9414 117.654 94.7519C115.145 99.4631 110.267 102.389 104.92 102.389C102.575 102.389 100.244 101.806 98.1532 100.692L76.625 89.2429C75.8901 88.8503 75.1045 88.6477 74.2809 88.6477C73.1405 88.6477 72.0128 89.0529 71.1385 89.7748C65.7913 94.1947 60.8242 99.1465 56.3893 104.516C55.1095 106.074 54.8941 108.214 55.8445 109.987L67.3118 131.53C67.7553 132.353 68.1101 133.214 68.3762 134.1C69.5039 137.786 69.1238 141.686 67.3118 145.081C65.4998 148.475 62.4715 150.97 58.7968 152.084L35.4694 159.176C33.5307 159.759 32.1495 161.43 31.9721 163.431C31.6427 166.901 31.478 170.409 31.478 173.854C31.478 177.299 31.6427 180.794 31.9721 184.29C32.1622 186.303 33.5307 187.962 35.4694 188.545L58.7968 195.65C59.6838 195.916 60.5454 196.283 61.3691 196.714C64.7649 198.512 67.2484 201.539 68.3762 205.224C69.5039 208.909 69.1238 212.81 67.3245 216.204L55.8698 237.721C54.9195 239.507 55.1222 241.66 56.402 243.218C60.8242 248.575 65.7913 253.526 71.1511 257.946C72.0254 258.668 73.1405 259.073 74.2936 259.073C75.1045 259.073 75.9155 258.871 76.625 258.491C77.3093 258.124 78.0822 257.934 78.8552 257.934C80.6038 257.934 82.213 258.896 83.0366 260.441C83.6322 261.556 83.7589 262.835 83.3787 264.038C83.0113 265.241 82.1877 266.242 81.0726 266.837C78.9945 267.951 76.6504 268.534 74.2809 268.534C70.9484 268.534 67.6919 267.369 65.1197 265.241C59.291 260.441 53.9058 255.046 49.0908 249.233C45.3528 244.712 44.7319 238.443 47.5069 233.276L58.9616 211.759C59.1136 211.468 59.2403 211.164 59.329 210.872C59.7092 209.631 59.5824 208.289 58.9616 207.111C58.328 205.933 57.289 205.085 56.0345 204.692L32.7071 197.6C27.0684 195.916 23.0897 191.04 22.5322 185.176C22.1774 181.39 22 177.59 22 173.867C22 170.144 22.1774 166.319 22.5322 162.545C23.077 156.694 27.0684 151.818 32.7071 150.121L56.0219 143.029C56.326 142.94 56.6174 142.814 56.8835 142.674C58.0619 142.041 58.9235 141.003 59.3164 139.736C59.5444 139.014 59.7979 137.545 58.9489 135.962L47.4942 114.433C44.7193 109.265 45.3401 103.009 49.0781 98.488C53.8805 92.6623 59.2783 87.2799 65.0944 82.4674C67.6666 80.3398 70.9231 79.1747 74.2556 79.1747C76.625 79.1747 78.9692 79.7699 81.0599 80.8844L102.588 92.333C102.88 92.485 103.171 92.6117 103.475 92.7003C103.931 92.8396 104.425 92.9156 104.907 92.9156C107.061 92.9156 109.012 91.4719 109.646 89.4075L116.742 66.1049C118.44 60.4692 123.318 56.4926 129.172 55.9354C132.91 55.5807 136.711 55.4034 140.475 55.4034C144.238 55.4034 148.052 55.5807 151.815 55.9354C157.682 56.4799 162.548 60.4692 164.246 66.1049L171.341 89.4075C171.443 89.7242 171.557 90.0154 171.709 90.2941C172.571 91.9151 174.243 92.9156 176.08 92.9156C176.904 92.9156 177.677 92.7256 178.399 92.333L199.927 80.8844C202.005 79.7699 204.362 79.1747 206.719 79.1747C210.052 79.1747 213.308 80.3398 215.88 82.4674C221.709 87.2672 227.094 92.6623 231.909 98.488C235.647 103.009 236.268 109.278 233.493 114.445L222.038 135.962C221.886 136.253 221.76 136.545 221.671 136.861C220.885 139.47 222.355 142.231 224.978 143.029L248.293 150.121C253.932 151.805 257.91 156.681 258.468 162.545C258.823 166.332 259 170.131 259 173.867C259 177.603 258.823 181.415 258.468 185.189C257.923 191.04 253.932 195.916 248.293 197.613L224.978 204.705C224.674 204.794 224.383 204.92 224.091 205.072C222.925 205.693 222.076 206.719 221.684 207.985C221.456 208.732 221.202 210.201 222.038 211.772L233.506 233.301C236.281 238.468 235.647 244.725 231.922 249.246C227.12 255.059 221.722 260.454 215.906 265.266C213.333 267.381 210.077 268.559 206.744 268.559H206.77Z" fill="url(#paint0_linear_1_437)"/>
<path d="M118.731 292.331C116.121 292.331 114.005 290.216 114.005 287.607V248.436L86.3437 220.789C85.4441 219.89 84.9626 218.712 84.9626 217.446V184.961L83.6954 184.227C80.9331 182.631 78.8804 179.934 78.0822 176.843C76.4349 170.448 80.2996 163.888 86.6985 162.241C87.6868 161.988 88.7005 161.861 89.7015 161.861C95.1628 161.861 99.9398 165.559 101.308 170.853C102.651 176.046 100.345 181.555 95.695 184.227L94.4279 184.961V215.483L122.089 243.129C122.989 244.028 123.47 245.206 123.47 246.473V287.607C123.47 290.216 121.354 292.331 118.744 292.331H118.731Z" fill="url(#paint1_linear_1_437)"/>
<path d="M140.524 292.33C137.914 292.33 135.798 290.215 135.798 287.607V160.772L134.531 160.037C130.831 157.91 128.524 153.92 128.537 149.64C128.537 143.054 133.922 137.697 140.511 137.697C145.998 137.697 150.788 141.395 152.143 146.689C153.474 151.869 151.155 157.352 146.517 160.037L145.25 160.772V287.607C145.25 290.215 143.134 292.33 140.524 292.33Z" fill="url(#paint2_linear_1_437)"/>
<path d="M162.306 292.331C159.696 292.331 157.58 290.216 157.58 287.607V246.473C157.58 245.206 158.074 244.028 158.961 243.129L186.622 215.483V184.961L185.355 184.227C181.642 182.087 179.349 178.097 179.362 173.804C179.387 167.218 184.759 161.861 191.348 161.861C194.58 161.861 197.608 163.128 199.863 165.407C202.119 167.674 203.361 170.689 203.348 173.893C203.348 178.148 201.042 182.112 197.354 184.227L196.087 184.961V217.433C196.087 218.7 195.593 219.877 194.706 220.777L167.045 248.423V287.594C167.045 290.203 164.929 292.318 162.319 292.318L162.306 292.331Z" fill="url(#paint3_linear_1_437)"/>
</g>
</g>
<defs>
<linearGradient id="paint0_linear_1_437" x1="45.5" y1="37.4128" x2="245.389" y2="50.162" gradientUnits="userSpaceOnUse">
<stop stop-color="#3966B6" stop-opacity="0.2"/>
<stop offset="1" stop-color="#192D50"/>
</linearGradient>
<linearGradient id="paint1_linear_1_437" x1="45.5" y1="37.4128" x2="245.389" y2="50.162" gradientUnits="userSpaceOnUse">
<stop stop-color="#3966B6" stop-opacity="0.2"/>
<stop offset="1" stop-color="#192D50"/>
</linearGradient>
<linearGradient id="paint2_linear_1_437" x1="45.5" y1="37.4128" x2="245.389" y2="50.162" gradientUnits="userSpaceOnUse">
<stop stop-color="#3966B6" stop-opacity="0.2"/>
<stop offset="1" stop-color="#192D50"/>
</linearGradient>
<linearGradient id="paint3_linear_1_437" x1="45.5" y1="37.4128" x2="245.389" y2="50.162" gradientUnits="userSpaceOnUse">
<stop stop-color="#3966B6" stop-opacity="0.2"/>
<stop offset="1" stop-color="#192D50"/>
</linearGradient>
</defs>
</svg>
