<svg width="248" height="242" viewBox="0 0 248 242" fill="none" xmlns="http://www.w3.org/2000/svg">
<path d="M221.54 0H25.7225C11.5425 0 0 11.2676 0 25.1099V174.405C0 188.247 11.5425 199.515 25.7225 199.515H86.8689L83.0302 211.522H81.7506C71.2004 211.522 62.6088 219.922 62.6088 230.246V236.734C62.6088 239.296 64.7372 241.373 67.3616 241.373H179.914C182.538 241.373 184.667 239.296 184.667 236.734V230.246C184.667 219.922 176.075 211.522 165.525 211.522H164.232L160.394 199.515H221.54C235.72 199.515 247.262 188.247 247.262 174.405V25.1099C247.262 11.2676 235.72 0 221.54 0ZM175.161 229.978V232.094H72.1144V230.246C72.1144 225.046 76.4363 220.801 81.7506 220.801H165.512C170.735 220.801 175.004 224.893 175.148 229.978H175.161ZM150.431 199.528L154.27 211.535H92.9927L96.8315 199.528H150.431ZM93.3453 190.249H93.2931H25.7225C16.7784 190.249 9.50558 183.149 9.50558 174.418V167.828H237.77V174.418C237.77 183.149 230.497 190.249 221.553 190.249H154.074H153.982H93.3453ZM25.7225 9.27918H221.54C230.484 9.27918 237.757 16.3788 237.757 25.1099V158.549H9.50558V25.1099C9.50558 16.3788 16.7784 9.27918 25.7225 9.27918Z" fill="url(#paint0_linear_116_12)"/>
<defs>
<linearGradient id="paint0_linear_116_12" x1="-64.7373" y1="-67.4647" x2="355.544" y2="351.536" gradientUnits="userSpaceOnUse">
<stop offset="0.1" stop-color="#3966B6" stop-opacity="0.2"/>
<stop offset="1" stop-color="#192D50"/>
</linearGradient>
</defs>
</svg>
