<svg width="15" height="15" viewBox="0 0 15 15" fill="none" xmlns="http://www.w3.org/2000/svg">
<path d="M8.19907 0.0314785C7.96912 0.0106033 7.73619 0 7.50624 0C5.49831 0 3.61264 0.780004 2.19648 2.19654C0.617305 3.77543 -0.171952 5.96335 0.031492 8.19932C0.3519 11.7276 3.13749 14.5682 6.65502 14.9539C6.93335 14.9844 7.21598 15 7.49564 15C8.65301 15 9.80741 14.7303 10.8339 14.2203C10.9847 14.1454 11.0973 14.0159 11.151 13.8562C11.2047 13.6965 11.1931 13.5255 11.1179 13.3747C11.0105 13.1587 10.7938 13.0245 10.5519 13.0245C10.4542 13.0245 10.3601 13.0467 10.272 13.0904C9.41908 13.5142 8.45918 13.7382 7.49597 13.7382C7.26237 13.7382 7.02546 13.7253 6.7922 13.6994C3.91615 13.384 1.5497 10.9704 1.28761 8.085C1.11863 6.22313 1.77501 4.40169 3.08812 3.08787C4.26638 1.90992 5.83694 1.26113 7.50988 1.26113C7.70074 1.26113 7.89424 1.26974 8.08509 1.28697C10.9708 1.54907 13.3846 3.91559 13.7 6.79173C13.7835 7.55384 13.7322 8.31032 13.5473 9.03963C13.4157 9.55886 12.9376 9.92169 12.3846 9.92169C11.7226 9.92169 11.1838 9.38291 11.1838 8.72087V4.44576C11.1838 4.27743 11.1182 4.11904 10.9989 3.99976C10.8796 3.88047 10.7213 3.81486 10.5529 3.81486C10.205 3.81486 9.92205 4.09784 9.92205 4.44576V4.73171L9.70933 4.56968C9.06056 4.07597 8.29649 3.81486 7.49961 3.81486C5.46848 3.81486 3.81575 5.46765 3.81575 7.49884C3.81575 9.53003 5.46848 11.1828 7.49961 11.1828C8.49795 11.1828 9.43498 10.7782 10.1381 10.0436L10.2537 9.92302L10.3448 10.0628C10.8024 10.7643 11.5648 11.1828 12.3843 11.1828C13.5148 11.1828 14.4956 10.429 14.7696 9.34944C14.9916 8.47567 15.0535 7.56876 14.9538 6.65389C14.5678 3.13758 11.7272 0.351896 8.19907 0.0314785ZM7.49994 5.07765C8.83558 5.07765 9.92238 6.16448 9.92238 7.50017C9.92238 8.83585 8.83558 9.92268 7.49994 9.92268C6.1643 9.92268 5.0775 8.83585 5.0775 7.50017C5.0775 6.16448 6.1643 5.07765 7.49994 5.07765Z" fill="#192D50"/>
</svg>
