<svg width="13" height="16" viewBox="0 0 13 16" fill="none" xmlns="http://www.w3.org/2000/svg">
<path d="M6.49983 0.00034413C2.9157 0.00034413 0 2.90652 0 6.47894C0 10.3917 3.65732 14.1169 4.78251 15.1689L4.78769 15.1737L4.79736 15.182C5.26277 15.6087 5.86731 15.8438 6.49983 15.8438C7.13234 15.8438 7.74172 15.6063 8.20816 15.1768C8.21127 15.1741 8.21403 15.1713 8.21679 15.1686C9.34061 14.1179 13 10.3924 13 6.47859C13 2.90618 10.084 0 6.50017 0L6.49983 0.00034413ZM7.24938 14.1448L7.24627 14.1475C7.04188 14.3344 6.77707 14.4373 6.49983 14.4373C6.22259 14.4373 5.95881 14.3351 5.75752 14.1513L5.75027 14.1444C4.44588 12.9248 1.41141 9.73647 1.41141 6.47894C1.41141 3.68254 3.69426 1.40715 6.50017 1.4068C9.30574 1.40749 11.5889 3.68254 11.5889 6.47894C11.5889 9.73751 8.55446 12.9252 7.24973 14.1448H7.24938Z" fill="#192D50"/>
<path d="M6.5 3.65625C4.93196 3.65625 3.65625 4.93196 3.65625 6.5C3.65625 8.06804 4.93196 9.34375 6.5 9.34375C8.06804 9.34375 9.34375 8.06804 9.34375 6.5C9.34375 4.93196 8.06804 3.65625 6.5 3.65625ZM6.5 7.94968C5.7008 7.94968 5.05067 7.29954 5.05067 6.5C5.05067 5.70046 5.7008 5.05033 6.5 5.05033C7.2992 5.05033 7.94968 5.70046 7.94968 6.5C7.94968 7.29954 7.29954 7.94968 6.5 7.94968Z" fill="#192D50"/>
</svg>
