<svg width="15" height="15" viewBox="0 0 15 15" fill="none" xmlns="http://www.w3.org/2000/svg">
<path d="M12.6342 8.73838C12.2717 8.36305 11.8326 8.16464 11.3647 8.16464C10.8967 8.16464 10.4573 8.3611 10.0839 8.73284L9.16905 9.64118C9.16283 9.63792 9.15629 9.63467 9.15007 9.63141C9.1216 9.61675 9.09346 9.60241 9.06565 9.58807L9.06238 9.58645C8.94949 9.53041 8.84282 9.4773 8.75873 9.42517C7.81079 8.82569 6.94792 8.04246 6.12269 7.0328C5.77159 6.59101 5.52487 6.21633 5.33836 5.8397C5.53861 5.65139 5.72774 5.46047 5.91164 5.27444L5.98068 5.20471C6.02714 5.15845 6.07328 5.11153 6.11975 5.06462C6.1649 5.01868 6.21038 4.97307 6.25554 4.92778C6.63674 4.54822 6.83798 4.10285 6.83798 3.63923C6.83798 3.17561 6.63642 2.73023 6.25554 2.35067L5.36126 1.46025C5.26146 1.36088 5.15839 1.25825 5.06285 1.15693L5.06023 1.15432C4.86652 0.95493 4.6571 0.743158 4.43885 0.542137C4.0776 0.187337 3.64405 0 3.18431 0C2.72458 0 2.28447 0.187663 1.91309 0.542463L0.790743 1.66974C0.332644 2.12587 0.0715271 2.68299 0.0142647 3.32743C-0.0678659 4.32113 0.221718 5.23892 0.446514 5.84296C0.987725 7.2967 1.79562 8.63868 2.98897 10.0673C4.44441 11.7977 6.19501 13.1625 8.19395 14.1246C8.96912 14.4904 10.0064 14.9199 11.1569 14.9932H11.1605C11.2354 14.9971 11.3084 15 11.3774 15C12.2007 15 12.8927 14.7035 13.434 14.1184L13.4559 14.0946L13.4588 14.0891C13.4588 14.0891 13.4611 14.0858 13.4624 14.0842C13.6103 13.9073 13.7824 13.7414 13.9647 13.5658L14.0095 13.5228C14.1813 13.3596 14.3191 13.2237 14.4421 13.0954C14.8073 12.7171 15 12.2727 15 11.8101C15 11.3474 14.8024 10.8991 14.4293 10.5316L12.6346 8.73805L12.6342 8.73838ZM13.5387 12.101L13.4104 12.1017V12.2401C13.3292 12.3238 13.2455 12.405 13.1575 12.49L13.0845 12.5607C12.8741 12.7604 12.6506 12.9794 12.4402 13.2253C12.1516 13.531 11.8247 13.6671 11.3807 13.6671C11.3346 13.6671 11.2868 13.6671 11.2449 13.6645C10.3107 13.6049 9.43507 13.2374 8.7777 12.9243C6.95316 12.045 5.35374 10.7975 4.0246 9.21764C2.92843 7.90204 2.19187 6.68191 1.70694 5.37706C1.41638 4.60198 1.30741 4.00348 1.3542 3.4369C1.38267 3.10719 1.50505 2.84459 1.73934 2.61099L2.85252 1.50261C2.97031 1.39314 3.08713 1.33547 3.19053 1.33547C3.31781 1.33547 3.43234 1.42311 3.50629 1.49674L3.52167 1.51173C3.70883 1.68571 3.88913 1.86751 4.10247 2.0871C4.15417 2.1402 4.20653 2.19331 4.25954 2.24674C4.31058 2.29822 4.36195 2.35035 4.41333 2.40313L5.30924 3.29518C5.4375 3.42289 5.50229 3.53823 5.50229 3.6389C5.50229 3.73957 5.4375 3.85523 5.30924 3.98262C5.27717 4.01455 5.24576 4.04616 5.21435 4.07776C5.15152 4.14096 5.09197 4.20091 5.03078 4.25988L5.02587 4.26477C4.73629 4.55995 4.48793 4.80626 4.21569 5.04931L4.21373 5.05126C4.20555 5.05778 4.19213 5.0695 4.17806 5.08677C3.78737 5.48719 3.91989 5.90552 3.96373 6.04398L3.97715 6.08406L3.98009 6.09155C4.21798 6.66529 4.5537 7.21134 5.06874 7.86262L5.07724 7.87337L5.08182 7.87793C6.00064 9.00326 6.9669 9.87739 8.03525 10.5502C8.17956 10.6411 8.32746 10.7147 8.45802 10.7799C8.5709 10.8362 8.67758 10.889 8.76363 10.9424L8.77247 10.948L8.77836 10.9509L8.78228 10.9535C8.79504 10.9613 8.80813 10.9692 8.8209 10.9753C8.96356 11.0464 9.10295 11.0809 9.24726 11.0809C9.49038 11.0809 9.71222 10.9828 9.90659 10.7893L11.0257 9.67507C11.0924 9.6086 11.224 9.4975 11.3578 9.4975C11.4916 9.4975 11.6146 9.61186 11.6598 9.66106L11.6634 9.66496L13.4775 11.4712C13.7003 11.6911 13.7209 11.8785 13.539 12.1013L13.5387 12.101Z" fill="#192D50"/>
</svg>
