<svg width="26" height="26" viewBox="0 0 26 26" fill="none" xmlns="http://www.w3.org/2000/svg">
<path d="M22.6909 0H3.30909C2.43147 0 1.58979 0.348635 0.96921 0.96921C0.348635 1.58979 0 2.43147 0 3.30909V22.6909C0 23.5685 0.348635 24.4102 0.96921 25.0308C1.58979 25.6514 2.43147 26 3.30909 26H12.8032V15.1819H10.6396V10.8546H12.7853V8.89909C12.7853 7.1292 13.6284 4.3641 17.3388 4.3641L20.6813 4.37751V8.08494H18.254C17.8593 8.08494 17.2977 8.28147 17.2977 9.12446V10.8549H20.7365L20.3417 15.1822H17.1305V26H22.6909C23.1255 26 23.5558 25.9144 23.9572 25.7481C24.3587 25.5818 24.7235 25.3381 25.0308 25.0308C25.3381 24.7235 25.5818 24.3587 25.7481 23.9572C25.9144 23.5558 26 23.1255 26 22.6909V3.30909C26 2.87453 25.9144 2.44423 25.7481 2.04276C25.5818 1.64128 25.3381 1.27649 25.0308 0.96921C24.7235 0.661933 24.3587 0.418187 23.9572 0.251889C23.5558 0.0855921 23.1255 0 22.6909 0Z" fill="#192D50"/>
</svg>
