<svg width="250" height="249" viewBox="0 0 250 249" fill="none" xmlns="http://www.w3.org/2000/svg">
<path d="M124.512 0C55.856 0 0 55.8268 0 124.447C0 193.067 55.856 248.893 124.512 248.893C193.167 248.893 249.023 193.067 249.023 124.447C249.023 55.8268 193.167 0 124.512 0ZM241.211 124.447C241.211 139.47 238.353 153.838 233.154 167.038L208.025 156.203C211.795 146.331 213.868 135.626 213.868 124.446C213.868 76.5093 175.883 37.2784 128.418 35.2272V7.88065C190.964 9.94793 241.211 61.4391 241.211 124.447ZM42.9692 124.446C42.9692 79.5068 79.5493 42.9458 124.512 42.9458C169.475 42.9458 206.055 79.5068 206.055 124.446C206.055 169.386 169.475 205.947 124.512 205.947C79.5493 205.947 42.9692 169.386 42.9692 124.446ZM7.8125 124.447C7.8125 61.4391 58.0591 9.94793 120.605 7.88065V35.2277C73.1406 37.2793 35.1567 76.5098 35.1567 124.446C35.1567 152.193 47.8838 177.025 67.8086 193.418L51.3877 215.275C24.834 193.877 7.8125 161.114 7.8125 124.447ZM124.512 241.085C99.6494 241.085 76.5815 233.268 57.6284 219.972L74.0527 198.111C88.4214 207.974 105.803 213.755 124.512 213.755C159.831 213.755 190.426 193.168 204.924 163.371L230.045 174.202C211.329 213.698 171.062 241.085 124.512 241.085ZM106.639 143.754C106.639 132.431 99.9775 122.636 90.3677 118.069C93.4541 114.965 95.3647 110.692 95.3647 105.98C95.3647 96.5199 87.6641 88.8232 78.1992 88.8232C68.7344 88.8232 61.0332 96.5199 61.0332 105.98C61.0332 110.692 62.9438 114.964 66.0303 118.068C56.4199 122.635 49.7588 132.43 49.7588 143.754C49.7588 145.91 51.5078 147.658 53.665 147.658H102.732C104.889 147.659 106.639 145.911 106.639 143.754ZM78.1987 96.6321C83.356 96.6321 87.5518 100.826 87.5518 105.981C87.5518 111.135 83.356 115.329 78.1987 115.329C73.0415 115.329 68.8452 111.135 68.8452 105.981C68.8452 100.826 73.0415 96.6321 78.1987 96.6321ZM57.9419 139.85C59.7725 130.343 68.1597 123.138 78.1982 123.138C88.2368 123.138 96.624 130.343 98.4546 139.85H57.9419ZM142.385 143.754C142.385 145.911 144.134 147.659 146.291 147.659H195.358C197.516 147.659 199.265 145.911 199.265 143.754C199.265 132.431 192.604 122.636 182.994 118.069C186.08 114.965 187.991 110.692 187.991 105.98C187.991 96.5199 180.29 88.8232 170.825 88.8232C161.36 88.8232 153.659 96.5199 153.659 105.98C153.659 110.692 155.57 114.964 158.656 118.068C149.046 122.635 142.385 132.431 142.385 143.754ZM191.081 139.85H150.568C152.398 130.343 160.786 123.138 170.824 123.138C180.863 123.138 189.25 130.343 191.081 139.85ZM170.825 96.6321C175.982 96.6321 180.178 100.826 180.178 105.981C180.178 111.135 175.982 115.329 170.825 115.329C165.668 115.329 161.472 111.135 161.472 105.981C161.472 100.826 165.667 96.6321 170.825 96.6321ZM153.157 181.57C153.157 170.246 146.496 160.451 136.886 155.884C139.973 152.78 141.883 148.507 141.883 143.796C141.883 134.336 134.183 126.639 124.718 126.639C115.253 126.639 107.552 134.336 107.552 143.796C107.552 148.507 109.462 152.78 112.549 155.883C102.938 160.45 96.2773 170.245 96.2773 181.569C96.2773 183.725 98.0264 185.473 100.184 185.473H149.251C151.408 185.474 153.157 183.726 153.157 181.57ZM124.718 134.447C129.875 134.447 134.071 138.641 134.071 143.796C134.071 148.95 129.875 153.144 124.718 153.144C119.561 153.144 115.364 148.95 115.364 143.796C115.364 138.641 119.56 134.447 124.718 134.447ZM104.461 177.665C106.292 168.158 114.679 160.953 124.717 160.953C134.756 160.953 143.143 168.158 144.974 177.665H104.461ZM100.184 109.843H149.251C151.408 109.843 153.157 108.095 153.157 105.939C153.157 94.6156 146.496 84.8204 136.886 80.2535C139.973 77.1496 141.883 72.877 141.883 68.1655C141.883 58.7052 134.183 51.0085 124.718 51.0085C115.253 51.0085 107.552 58.7052 107.552 68.1655C107.552 72.8765 109.462 77.1496 112.549 80.253C102.938 84.8194 96.2773 94.6151 96.2773 105.939C96.2773 108.095 98.0264 109.843 100.184 109.843ZM124.718 58.8174C129.875 58.8174 134.071 63.0115 134.071 68.166C134.071 73.3206 129.875 77.5142 124.718 77.5142C119.561 77.5142 115.364 73.3206 115.364 68.166C115.364 63.0115 119.56 58.8174 124.718 58.8174ZM124.717 85.3226C134.756 85.3226 143.143 92.5273 144.974 102.035H104.46C106.292 92.5273 114.678 85.3226 124.717 85.3226Z" fill="url(#paint0_linear_116_14)"/>
<defs>
<linearGradient id="paint0_linear_116_14" x1="-80.5" y1="-43.4773" x2="376.261" y2="414.022" gradientUnits="userSpaceOnUse">
<stop stop-color="#3966B6" stop-opacity="0.2"/>
<stop offset="1" stop-color="#192D50"/>
</linearGradient>
</defs>
</svg>
