<svg width="53" height="38" viewBox="0 0 53 38" fill="none" xmlns="http://www.w3.org/2000/svg">
<g opacity="0.1">
<path d="M43.0663 12.9479C44.2312 10.0197 46.0667 7.12658 48.52 4.33934C49.2966 3.45732 49.4025 2.18726 48.7672 1.19939C48.2729 0.423211 47.4611 -0.000144479 46.5786 -0.000144402C46.3315 -0.00014438 46.0844 0.0174071 45.8372 0.105698C40.6483 1.62276 28.5229 7.00308 28.1875 24.2555C28.0641 30.9059 32.9353 36.6214 39.2716 37.2741C42.7839 37.6269 46.2785 36.4804 48.8731 34.1518C51.4675 31.8056 52.9501 28.4539 52.9501 24.9611C52.9501 19.1398 48.82 14.0416 43.0663 12.9479Z" fill="#192D50"/>
<path d="M11.1017 37.2741C14.5964 37.6269 18.091 36.4804 20.6854 34.1518C23.28 31.8056 24.7626 28.4539 24.7626 24.9611C24.7626 19.1398 20.6326 14.0416 14.8787 12.9479C16.0437 10.0197 17.8792 7.12658 20.3325 4.33937C21.1091 3.45734 21.215 2.18728 20.5795 1.19941C20.0854 0.423233 19.2735 -0.000121591 18.391 -0.000121514C18.144 -0.000121492 17.8969 0.01743 17.6497 0.105721C12.4607 1.62278 0.335389 7.0031 4.65395e-05 24.2555L4.65611e-05 24.5024C4.71336e-05 31.0471 4.81838 36.6214 11.1017 37.2741Z" fill="#192D50"/>
</g>
</svg>
