<svg width="182" height="242" viewBox="0 0 182 242" fill="none" xmlns="http://www.w3.org/2000/svg">
<path d="M129.638 17.2742V8.63709C129.638 3.86979 125.766 0 120.996 0H60.4922C55.7224 0 51.8505 3.86979 51.8505 8.63709V17.2742H12.9685C5.80781 17.2858 0 23.0789 0 30.2357V228.912C0 236.069 5.80781 241.862 12.9685 241.874H168.543C175.704 241.874 181.5 236.069 181.512 228.912V30.2357C181.512 23.0789 175.704 17.2858 168.543 17.2742H129.638ZM60.5039 8.63709H121.008V34.5484H60.5039V8.63709ZM65.2154 233.236C70.8133 203.77 111.736 205.67 116.261 233.236H65.2154ZM146.933 233.236H125.031C119.118 193.175 62.3815 193.21 56.4921 233.236H34.637L34.6953 228.481L38.3456 227.385C43.5003 226.383 44.8065 220.357 46.6374 216.382C49.0165 212.314 46.8357 207.826 44.7365 204.19L57.53 191.496C60.8421 194.364 65.4837 195.133 69.5422 193.478C73.4723 191.648 79.5834 190.307 80.563 185.284L81.8225 181.414L99.8524 181.531L100.949 185.179C101.952 190.331 108.028 191.636 111.958 193.466C116.051 195.856 120.541 193.653 124.18 191.555L136.868 204.376L134.898 207.908C132.239 212.734 135.259 216.72 136.985 221.487C138.315 226.08 142.945 227.513 146.956 228.644V233.26L146.933 233.236ZM172.858 228.912C172.858 231.302 170.922 233.225 168.532 233.236H155.563V228.621C155.586 224.728 153.021 221.289 149.277 220.205L145.44 219.063C144.146 216.767 143.516 214.121 142.49 212.361C142.443 212.232 142.443 212.104 142.49 211.976L144.426 208.502C146.28 205.076 145.65 200.844 142.898 198.094L130.268 185.435C127.504 182.673 123.247 182.067 119.818 183.932L116.378 185.82C116.203 185.925 115.958 185.808 115.841 185.75C114.034 184.608 111.223 184.153 109.229 182.801L108.109 179.059C107.025 175.318 103.584 172.742 99.6891 172.765H81.7992C77.904 172.742 74.4636 175.306 73.379 179.048L72.2245 182.906C70.0903 184.037 67.5013 184.666 65.6003 185.762C65.4487 185.843 65.2854 185.867 65.1221 185.82L61.6585 183.92C58.2181 182.055 53.973 182.673 51.1974 185.435L38.6371 198.035C35.8382 200.798 35.2084 205.087 37.0977 208.549L38.9753 211.929C38.4039 214.086 37.0627 216.114 36.398 218.608C36.3396 218.83 36.1764 219.005 35.9665 219.074L32.2229 220.193C28.4793 221.277 25.9019 224.716 25.9252 228.609V233.225H12.9568C10.566 233.225 8.64175 231.29 8.63008 228.9V60.4713C8.63008 60.3431 8.60676 60.2149 8.5951 60.0867V31.1215C8.66507 29.3848 8.9333 27.9161 10.1229 26.9254C10.5893 26.529 11.4407 26.0162 12.9685 25.9229H51.8621V34.56C51.8621 39.3273 55.734 43.1971 60.5039 43.1971H121.008C125.778 43.1971 129.65 39.3273 129.65 34.56V25.9229H168.543C170.934 25.9229 172.858 27.8578 172.87 30.2473V228.924L172.858 228.912Z" fill="url(#paint0_linear_116_18)"/>
<path d="M44.4804 85.1133C46.1715 86.8034 48.9004 86.8034 50.5915 85.1133L67.875 67.8391C69.531 66.114 69.4727 63.3865 67.7583 61.7314C66.0906 60.1228 63.4433 60.1228 61.7639 61.7314L47.5359 75.9517L41.9497 70.3684C40.2237 68.7133 37.4947 68.7716 35.8387 70.485C34.2293 72.1518 34.2293 74.7977 35.8387 76.4762L44.4804 85.1133Z" fill="url(#paint1_linear_116_18)"/>
<path d="M61.7639 96.2904L47.5359 110.511L41.9497 104.928C40.2237 103.272 37.4947 103.331 35.8387 105.056C34.2293 106.723 34.2293 109.368 35.8387 111.035L44.4804 119.672C46.1715 121.362 48.9004 121.362 50.5915 119.672L67.875 102.398C69.5543 100.696 69.531 97.9689 67.84 96.2904C66.1606 94.6236 63.4549 94.6236 61.7639 96.2904Z" fill="url(#paint2_linear_116_18)"/>
<path d="M61.7639 130.839L47.5359 145.059L41.9497 139.476C40.2237 137.82 37.4947 137.879 35.8387 139.604C34.2293 141.271 34.2293 143.917 35.8387 145.583L44.4804 154.22C46.1715 155.911 48.9004 155.911 50.5915 154.22L67.875 136.946C69.5543 135.245 69.531 132.517 67.84 130.839C66.1606 129.172 63.4549 129.172 61.7639 130.839Z" fill="url(#paint3_linear_116_18)"/>
<path d="M142.607 69.1071H90.7449C88.3542 69.1537 86.4649 71.1236 86.5115 73.513C86.5582 75.8326 88.4241 77.6975 90.7449 77.7442H142.607C144.998 77.7092 146.899 75.7393 146.864 73.3615C146.829 71.0303 144.94 69.142 142.607 69.1071Z" fill="url(#paint4_linear_116_18)"/>
<path d="M142.607 103.657H90.7449C88.3542 103.704 86.4649 105.673 86.5115 108.063C86.5582 110.382 88.4241 112.247 90.7449 112.294H142.607C144.998 112.259 146.899 110.289 146.864 107.911C146.829 105.58 144.94 103.692 142.607 103.657Z" fill="url(#paint5_linear_116_18)"/>
<path d="M142.607 138.217H90.7449C88.3542 138.263 86.4649 140.233 86.5115 142.623C86.5582 144.942 88.4241 146.807 90.7449 146.854H142.607C144.998 146.795 146.887 144.826 146.829 142.436C146.782 140.128 144.916 138.263 142.607 138.217Z" fill="url(#paint6_linear_116_18)"/>
<defs>
<linearGradient id="paint0_linear_116_18" x1="-121" y1="-115.44" x2="451.201" y2="456.061" gradientUnits="userSpaceOnUse">
<stop stop-color="#3966B6" stop-opacity="0.2"/>
<stop offset="1" stop-color="#192D50"/>
</linearGradient>
<linearGradient id="paint1_linear_116_18" x1="-121" y1="-115.44" x2="451.201" y2="456.061" gradientUnits="userSpaceOnUse">
<stop stop-color="#3966B6" stop-opacity="0.2"/>
<stop offset="1" stop-color="#192D50"/>
</linearGradient>
<linearGradient id="paint2_linear_116_18" x1="-121" y1="-115.44" x2="451.201" y2="456.061" gradientUnits="userSpaceOnUse">
<stop stop-color="#3966B6" stop-opacity="0.2"/>
<stop offset="1" stop-color="#192D50"/>
</linearGradient>
<linearGradient id="paint3_linear_116_18" x1="-121" y1="-115.44" x2="451.201" y2="456.061" gradientUnits="userSpaceOnUse">
<stop stop-color="#3966B6" stop-opacity="0.2"/>
<stop offset="1" stop-color="#192D50"/>
</linearGradient>
<linearGradient id="paint4_linear_116_18" x1="-121" y1="-115.44" x2="451.201" y2="456.061" gradientUnits="userSpaceOnUse">
<stop stop-color="#3966B6" stop-opacity="0.2"/>
<stop offset="1" stop-color="#192D50"/>
</linearGradient>
<linearGradient id="paint5_linear_116_18" x1="-121" y1="-115.44" x2="451.201" y2="456.061" gradientUnits="userSpaceOnUse">
<stop stop-color="#3966B6" stop-opacity="0.2"/>
<stop offset="1" stop-color="#192D50"/>
</linearGradient>
<linearGradient id="paint6_linear_116_18" x1="-121" y1="-115.44" x2="451.201" y2="456.061" gradientUnits="userSpaceOnUse">
<stop stop-color="#3966B6" stop-opacity="0.2"/>
<stop offset="1" stop-color="#192D50"/>
</linearGradient>
</defs>
</svg>
